<svg width="238" height="101" viewBox="0 0 238 101" fill="none" xmlns="http://www.w3.org/2000/svg">
<path d="M92.6673 22.9182C92.6673 21.1174 91.9822 19.5125 90.6121 18.1032C89.2811 16.6939 86.9324 15.9893 83.5658 15.9893H74.0534V43H84.6228C87.911 43 90.2402 42.2954 91.6103 40.8861C92.9804 39.4769 93.6655 37.774 93.6655 35.7776C93.6655 32.411 92.0214 30.1797 88.7331 29.0836C91.3559 28.105 92.6673 26.0498 92.6673 22.9182ZM80.6886 28.0267V18.3968H82.9199C85.0338 18.3968 86.0907 20.0018 86.0907 23.2117C86.0907 26.4217 85.0338 28.0267 82.9199 28.0267H80.6886ZM80.6886 40.5925V30.3754H83.742C84.7598 30.3754 85.5623 30.9235 86.1495 32.0196C86.7758 33.0765 87.089 34.3292 87.089 35.7776C87.089 38.9875 85.9733 40.5925 83.742 40.5925H80.6886ZM100.573 21.8612H97.5788V43H104.155V29.9057C104.155 28.6922 104.566 27.7918 105.388 27.2046C106.25 26.6174 107.757 26.3238 109.91 26.3238V21.6851C107.052 21.6851 104.821 22.9769 103.216 25.5605L100.573 21.8612ZM131.345 21.8612H124.827V38.5961C123.848 39.6139 122.831 40.1228 121.774 40.1228C120.717 40.1228 119.993 39.7705 119.601 39.0658C119.21 38.3612 119.014 37.3238 119.014 35.9537V21.8612H112.437V36.8345C112.437 41.2972 114.747 43.5285 119.366 43.5285C121.872 43.5285 123.907 42.6477 125.473 40.8861L127.176 43H131.345V21.8612ZM142.707 23.7402L140.534 21.8612H137.54V43H144.116V26.1477C145.212 25.4039 146.289 25.032 147.346 25.032C148.442 25.032 149.166 25.3452 149.518 25.9715C149.871 26.5979 150.047 27.5961 150.047 28.9662V43H156.565V28.1441C156.565 26.1477 155.997 24.5231 154.862 23.2705C153.766 21.9786 152.063 21.3327 149.753 21.3327C147.444 21.3327 145.095 22.1352 142.707 23.7402ZM181.021 32.4306C181.021 25.032 177.674 21.3327 170.98 21.3327C164.325 21.3327 160.998 25.032 160.998 32.4306C160.998 39.8292 164.325 43.5285 170.98 43.5285C177.674 43.5285 181.021 39.8292 181.021 32.4306ZM167.516 32.4306C167.516 29.6904 167.751 27.6939 168.22 26.4413C168.69 25.1886 169.61 24.5623 170.98 24.5623C172.389 24.5623 173.309 25.1886 173.74 26.4413C174.21 27.6548 174.445 29.6512 174.445 32.4306C174.445 35.21 174.21 37.226 173.74 38.4786C173.309 39.6922 172.389 40.2989 170.98 40.2989C169.61 40.2989 168.69 39.6726 168.22 38.4199C167.751 37.1673 167.516 35.1708 167.516 32.4306Z" fill="white"/>
<path d="M113.141 52.9893H92.589V56.1601H99.6352V80H106.212V56.1601H113.141V52.9893ZM133.509 70.3114V69.6068C133.509 62.0907 130.377 58.3327 124.114 58.3327C117.694 58.3327 114.484 62.032 114.484 69.4306C114.484 73.1495 115.228 75.9288 116.716 77.7687C118.242 79.6085 120.65 80.5285 123.938 80.5285C127.265 80.5285 129.595 79.9413 130.926 78.7669C132.256 77.5925 133.02 75.9875 133.216 73.952L127.813 73.8345C127.813 76.1441 126.756 77.2989 124.643 77.2989C123.39 77.2989 122.47 76.8096 121.883 75.831C121.296 74.8132 121.002 72.9733 121.002 70.3114H133.509ZM127.167 67.0819H121.119C121.276 64.9288 121.57 63.4804 122 62.7367C122.47 61.9537 123.194 61.5623 124.173 61.5623C125.191 61.5623 125.915 62.0125 126.345 62.9128C126.815 63.774 127.089 65.1637 127.167 67.0819ZM149.309 76.3007C148.37 76.7313 147.587 76.9466 146.961 76.9466C145.943 76.9466 145.434 76.2616 145.434 74.8915V62.2082H149.427V58.8612H145.434V53.7527L138.857 55.984V58.8612H135.687V62.2082H138.857V73.5996C138.857 76.2224 139.327 78.0036 140.267 78.9431C141.324 80 142.831 80.5285 144.788 80.5285C146.784 80.5285 148.585 80.0979 150.19 79.2367L149.309 76.3007ZM167.211 76.7117H157.523L166.918 62.6779V58.8612H150.829V62.2082H160.106L150.594 76.1246V80H167.211V76.7117ZM176.373 60.7402L174.2 58.8612H171.206V80H177.782V63.1477C178.878 62.4039 179.955 62.032 181.012 62.032C182.108 62.032 182.832 62.3452 183.184 62.9715C183.537 63.5979 183.713 64.5961 183.713 65.9662V80H190.231V65.1441C190.231 63.1477 189.663 61.5231 188.528 60.2705C187.432 58.9786 185.729 58.3327 183.419 58.3327C181.11 58.3327 178.761 59.1352 176.373 60.7402ZM213.689 70.3114V69.6068C213.689 62.0907 210.557 58.3327 204.294 58.3327C197.874 58.3327 194.664 62.032 194.664 69.4306C194.664 73.1495 195.408 75.9288 196.895 77.7687C198.422 79.6085 200.829 80.5285 204.118 80.5285C207.445 80.5285 209.774 79.9413 211.105 78.7669C212.436 77.5925 213.199 75.9875 213.395 73.952L207.993 73.8345C207.993 76.1441 206.936 77.2989 204.822 77.2989C203.57 77.2989 202.65 76.8096 202.062 75.831C201.475 74.8132 201.182 72.9733 201.182 70.3114H213.689ZM207.347 67.0819H201.299C201.456 64.9288 201.749 63.4804 202.18 62.7367C202.65 61.9537 203.374 61.5623 204.353 61.5623C205.37 61.5623 206.095 62.0125 206.525 62.9128C206.995 63.774 207.269 65.1637 207.347 67.0819ZM221.445 58.8612H218.45V80H225.026V66.9057C225.026 65.6922 225.437 64.7918 226.259 64.2046C227.121 63.6174 228.628 63.3238 230.781 63.3238V58.6851C227.923 58.6851 225.692 59.9769 224.087 62.5605L221.445 58.8612Z" fill="white"/>
<path d="M211.739 51.6664L207.64 50.4772C207.21 50.3563 206.968 49.9061 207.089 49.4761L216.26 17.8845C216.381 17.4545 216.831 17.2127 217.261 17.3336L221.36 18.5228C221.79 18.6438 222.032 19.0939 221.911 19.5239L212.74 51.1155C212.612 51.5455 212.169 51.7941 211.739 51.6664ZM204.079 44.128L207.002 41.0105C207.311 40.6813 207.291 40.1572 206.948 39.8548L200.861 34.5L206.948 29.1452C207.291 28.8428 207.318 28.3188 207.002 27.9895L204.079 24.872C203.777 24.5495 203.266 24.5294 202.937 24.8384L193.255 33.9088C192.913 34.2245 192.913 34.7688 193.255 35.0845L202.937 44.1616C203.266 44.4706 203.777 44.4572 204.079 44.128ZM226.063 44.1683L235.745 35.0913C236.087 34.7755 236.087 34.2313 235.745 33.9155L226.063 24.8317C225.74 24.5294 225.23 24.5428 224.921 24.8653L221.998 27.9828C221.689 28.312 221.709 28.8361 222.052 29.1384L228.139 34.5L222.052 39.8548C221.709 40.1572 221.682 40.6813 221.998 41.0105L224.921 44.128C225.223 44.4572 225.734 44.4706 226.063 44.1683Z" fill="white"/>
<path d="M33.3867 62.4127C33.7148 60.7311 31.7461 58.3111 28.957 55.7545C26.0996 53.1295 22.3672 50.4088 20.2891 49.3834C17.3223 47.7428 14.5879 49.1373 13.959 52.4869C13.2754 56.0689 13.959 59.5143 15.9414 62.5904C17.3359 64.7096 19.4141 65.6939 21.875 65.8717C23.4609 65.9537 29.0527 66.1725 30.3106 65.735C31.9375 65.1471 33.0586 64.1217 33.3867 62.4127ZM61.4141 65.2564C61.3244 65.182 61.2179 65.1306 61.1039 65.1068C60.9898 65.0829 60.8717 65.0874 60.7597 65.1198C60.6478 65.1521 60.5455 65.2114 60.4617 65.2924C60.378 65.3735 60.3153 65.4738 60.2793 65.5846C59.1856 69.0572 54.168 80.9654 36.75 82.1959C16.2832 83.6314 47.7285 88.1568 56.6289 81.3209C59.7324 78.942 63.1367 76.5357 63 69.6451C62.9453 68.2643 62.3301 65.9961 61.4141 65.2564ZM69.8906 48.5221C69.8496 45.9381 68.7149 43.9557 66.3359 42.7525C65.9395 42.5748 65.6524 42.3834 65.5293 41.8775C64.7025 37.2426 62.8118 32.8626 60.0059 29.082C59.8555 28.877 59.5274 28.6445 59.7051 28.3984C60.8672 26.8262 59.6641 25.9375 58.7481 25.0625C48.877 15.5186 37.3789 12.761 24.2539 16.7896C18.7715 18.4713 14.1504 21.6568 10.3086 26.0045C9.76172 26.5924 9.39258 27.2486 9.89844 27.9869C10.3086 28.5338 10.0762 28.8346 9.76172 29.2584C7.05469 33.0469 5.22266 37.2291 4.38867 41.7969C4.29297 42.3848 3.99219 42.6172 3.51367 42.8633C1.57227 43.8203 0.4375 45.3926 0.109375 47.5117L0 51.1334V53.9908C0 58.2018 2.87109 60.8814 7.08203 60.69C8.13477 60.649 8.68164 60.1021 8.72266 59.1178C8.99609 48.5221 8.39453 46.0748 9.22852 41.9186C12.5918 24.8971 32.0332 15.6836 47.209 23.94C56.2461 28.9453 60.9356 36.7383 61.1953 47.1002C61.3047 50.9557 61.1953 54.8248 61.1953 58.6666C61.1953 59.6236 61.4961 60.3756 62.4805 60.608C65.7754 61.2916 69.207 58.9674 69.7539 55.5904C70.1504 53.2525 69.8906 50.8736 69.8906 48.5221ZM48.0703 66.5006C53.0606 66.8834 56.1777 62.6041 56.0547 58.2291C55.7676 52.0494 47.0039 55.9732 44.0508 57.1354C34.043 60.9771 37.8984 64.6412 41.0156 65.4478L48.0703 66.5006Z" fill="white"/>
</svg>
