<svg width="488" height="149" viewBox="0 0 488 149" fill="none" xmlns="http://www.w3.org/2000/svg">
<rect opacity="0.91" x="3" y="3" width="482" height="143" rx="19" stroke="white" stroke-width="6"/>
<path d="M454.555 90.5588L462.832 56.3254C463.429 53.8537 461.431 51.5 458.734 51.5H389.968L388.364 44.125C387.964 42.2868 386.243 40.9667 384.247 40.9667H366.297C363.976 40.9667 362.095 42.7351 362.095 44.9167V47.55C362.095 49.7316 363.976 51.5 366.297 51.5H378.532L390.83 108.024C387.888 109.614 385.905 112.597 385.905 116.017C385.905 121.107 390.295 125.233 395.709 125.233C401.124 125.233 405.514 121.107 405.514 116.017C405.514 113.437 404.385 111.106 402.568 109.433H439.272C437.455 111.106 436.327 113.437 436.327 116.017C436.327 121.107 440.716 125.233 446.131 125.233C451.546 125.233 455.935 121.107 455.935 116.017C455.935 112.368 453.679 109.214 450.406 107.721L451.372 103.725C451.97 101.254 449.971 98.9 447.275 98.9H400.282L399.136 93.6333H450.458C452.42 93.6333 454.121 92.3572 454.555 90.5588Z" fill="white"/>
<rect x="136.867" y="40.9495" width="230.44" height="10.5378" fill="white"/>
<rect x="17" y="18" width="110" height="38" rx="7" fill="#BF3434"/>
<path d="M32.394 48.093C32.1873 48.093 32.022 48.0723 31.898 48.031H31.278H30.72H30.503L29.108 47.69L28.984 47.442C28.9633 47.442 28.953 47.3283 28.953 47.101C28.953 46.8117 28.9427 46.574 28.922 46.388L28.891 44.962C28.8703 44.652 28.86 44.187 28.86 43.567L28.798 41.18C28.798 40.6633 28.8187 39.9503 28.86 39.041L28.891 37.987C28.9323 37.3257 28.953 36.2407 28.953 34.732V34.515V34.112C28.9117 34.05 28.891 33.9363 28.891 33.771L28.86 33.554C28.86 33.0373 28.891 32.5 28.953 31.942C28.9943 31.2393 29.015 30.5987 29.015 30.02L28.984 29.152C28.9633 28.9247 28.953 28.656 28.953 28.346C28.953 28.3253 28.9323 28.2943 28.891 28.253C28.8703 28.2117 28.86 28.1703 28.86 28.129C28.86 27.9223 28.9427 27.7467 29.108 27.602C29.2733 27.4573 29.48 27.354 29.728 27.292C30.0587 27.1887 30.4823 27.137 30.999 27.137H36.238H38.656C38.6767 27.137 38.7077 27.1577 38.749 27.199C38.7903 27.2403 38.8317 27.2713 38.873 27.292C39.0383 27.4367 39.245 27.7157 39.493 28.129C39.555 28.253 39.617 28.3977 39.679 28.563C39.7617 28.7077 39.865 28.9453 39.989 29.276C40.1337 29.6067 40.33 30.113 40.578 30.795L40.95 31.756C41.1153 32.066 41.3013 32.5103 41.508 33.089C41.57 33.2543 41.632 33.4197 41.694 33.585C41.7767 33.7503 41.849 33.9157 41.911 34.081C41.9523 34.2257 41.9937 34.3393 42.035 34.422C42.097 34.484 42.128 34.5253 42.128 34.546C42.2727 34.8767 42.4277 35.042 42.593 35.042C42.7997 35.042 42.965 34.8767 43.089 34.546C43.1097 34.5253 43.1303 34.484 43.151 34.422C43.1717 34.3393 43.2233 34.2153 43.306 34.05L43.771 33.027L45.011 30.392L45.538 29.276C45.6 29.1107 45.6413 28.9763 45.662 28.873C45.7033 28.749 45.7447 28.6663 45.786 28.625C45.8687 28.439 46.065 28.1187 46.375 27.664C46.4783 27.4987 46.5713 27.3747 46.654 27.292C46.716 27.2713 46.7573 27.2403 46.778 27.199C46.7987 27.1577 46.8297 27.137 46.871 27.137H49.289H54.528H54.993H55.303H55.706H56.388C56.4293 27.137 56.481 27.292 56.543 27.602L56.636 30.64C56.6773 31.508 56.698 32.872 56.698 34.732V36.53C56.698 37.2327 56.667 38.018 56.605 38.886C56.543 39.754 56.5017 40.312 56.481 40.56L56.419 41.18V42.265C56.4397 42.5543 56.45 42.9883 56.45 43.567C56.45 44.187 56.4603 44.652 56.481 44.962C56.481 45.5613 56.5017 45.9747 56.543 46.202V47.101V47.442L56.45 47.69L55.055 48.031H54.838H54.28H53.66C53.5153 48.0723 53.3397 48.093 53.133 48.093C52.761 48.093 52.2443 48.0723 51.583 48.031L50.808 48C50.6633 47.9793 50.498 47.9587 50.312 47.938C50.126 47.9173 49.8987 47.907 49.63 47.907L48.421 47.814C48.3797 47.814 48.3487 47.8243 48.328 47.845H48.08C47.9767 47.845 47.9147 47.7313 47.894 47.504C47.77 47.0907 47.708 46.388 47.708 45.396C47.708 44.7347 47.6977 44.218 47.677 43.846L47.646 42.172C47.6253 41.8 47.615 41.2627 47.615 40.56C47.615 40.3947 47.5427 40.312 47.398 40.312C47.3153 40.312 47.2327 40.4153 47.15 40.622L46.809 41.459L46.53 42.234C46.4887 42.358 46.4473 42.482 46.406 42.606C46.3647 42.73 46.313 42.8437 46.251 42.947L46.096 43.319C45.91 43.7323 45.6723 44.1973 45.383 44.714C45.073 45.272 44.6907 45.7163 44.236 46.047C43.988 46.1917 43.771 46.264 43.585 46.264H43.12C42.872 46.264 42.6653 46.2433 42.5 46.202H41.818H41.198C40.3713 44.8793 39.5963 43.4327 38.873 41.862L38.408 40.715C38.284 40.4463 38.2013 40.312 38.16 40.312C38.0153 40.312 37.943 40.3947 37.943 40.56V42.017C37.943 43.4637 37.9223 44.528 37.881 45.21C37.8397 46.2847 37.7673 47.0287 37.664 47.442C37.6433 47.7107 37.5813 47.845 37.478 47.845H37.261L37.106 47.814C36.4033 47.8553 35.8453 47.8967 35.432 47.938C35.184 47.9587 34.75 47.9897 34.13 48.031C33.51 48.0723 32.9313 48.093 32.394 48.093ZM61.1821 48.031C61.0374 48.031 60.9031 47.9793 60.7791 47.876C60.6551 47.752 60.5621 47.597 60.5001 47.411C60.4174 47.039 60.3554 46.6257 60.3141 46.171C60.2934 46.0263 60.2831 45.83 60.2831 45.582V45.179L60.3141 41.335C60.3141 40.033 60.3451 38.7517 60.4071 37.491V27.695C60.4071 27.4883 60.5414 27.385 60.8101 27.385C62.2361 27.385 63.3004 27.3747 64.0031 27.354H67.1031C67.1651 27.354 67.2168 27.3437 67.2581 27.323C67.2994 27.3023 67.3511 27.292 67.4131 27.292C67.6818 27.2507 68.0538 27.2403 68.5291 27.261C68.8804 27.261 69.2524 27.292 69.6451 27.354C69.7691 27.4367 69.8621 27.4573 69.9241 27.416C69.9654 27.416 70.0481 27.3953 70.1721 27.354C70.4821 27.354 70.7198 27.3747 70.8851 27.416C71.0711 27.4573 71.2158 27.5503 71.3191 27.695C71.4224 27.881 71.5051 28.1083 71.5671 28.377C71.5878 28.5837 71.5981 29.0177 71.5981 29.679V35.724V36.189C71.5774 36.3543 71.5671 36.7263 71.5671 37.305C71.5671 37.925 71.5464 38.4107 71.5051 38.762L71.4741 40.157C71.4534 40.467 71.4431 40.8597 71.4431 41.335L71.4121 41.831V43.815C71.4121 45.055 71.3604 46.109 71.2571 46.977C71.2571 47.2663 71.1848 47.5557 71.0401 47.845C70.6681 47.845 70.1308 47.8657 69.4281 47.907C69.0974 47.907 68.8804 47.9277 68.7771 47.969H68.4671H68.3741C68.2294 47.969 68.1571 47.9483 68.1571 47.907C67.9918 47.8657 67.8988 47.845 67.8781 47.845L67.6301 47.969H64.7781C64.7574 47.9897 64.5921 48 64.2821 48H63.1041H61.9571L61.1821 48.031ZM79.1146 48.093C78.908 48.093 78.7323 48.0723 78.5876 48.031H77.9676H77.4716H77.1926L75.7976 47.69L75.7046 47.442C75.684 47.442 75.6736 47.3283 75.6736 47.101C75.6323 46.481 75.6116 45.768 75.6116 44.962C75.6116 44.3833 75.591 43.9183 75.5496 43.567C75.5496 42.9883 75.5393 42.5543 75.5186 42.265V41.18C75.4153 40.2293 75.3533 39.1857 75.3326 38.049C75.312 36.9123 75.3016 35.8067 75.3016 34.732L75.3636 31.57C75.3843 31.2187 75.3946 30.6813 75.3946 29.958C75.3946 29.2347 75.3843 28.6973 75.3636 28.346C75.3016 27.8707 75.436 27.5193 75.7666 27.292C75.9733 27.1887 76.335 27.137 76.8516 27.137C77.6163 27.137 78.598 27.1163 79.7966 27.075L80.4786 27.013C81.7186 26.9303 82.4936 26.889 82.8036 26.889C83.093 26.889 83.2996 26.8993 83.4236 26.92C83.713 26.9407 83.9093 26.982 84.0126 27.044C84.116 27.106 84.209 27.2093 84.2916 27.354C84.395 27.4987 84.4673 27.6123 84.5086 27.695C84.7566 28.0257 85.0046 28.377 85.2526 28.749C85.6246 29.307 85.9243 29.741 86.1516 30.051L88.1976 33.182L89.1896 34.67C89.1896 34.1327 89.2103 33.709 89.2516 33.399V30.516L89.3446 28.315C89.3653 28.1497 89.386 28.036 89.4066 27.974C89.4273 27.912 89.4583 27.8707 89.4996 27.85C89.541 27.8087 89.572 27.7777 89.5926 27.757C89.8406 27.5503 90.0886 27.3953 90.3366 27.292C90.5433 27.2507 90.7086 27.23 90.8326 27.23H92.5996H92.9716C93.137 27.2507 93.4263 27.261 93.8396 27.261C94.2943 27.261 94.656 27.2713 94.9246 27.292H95.9786H96.8466H97.2186C97.756 27.292 98.1176 27.3747 98.3036 27.54C98.531 27.7053 98.6446 28.067 98.6446 28.625L98.6136 28.935L98.5826 29.431C98.562 29.555 98.5516 29.7203 98.5516 29.927V30.299V30.547L98.6136 30.857V31.849C98.593 32.2003 98.5826 32.7997 98.5826 33.647V35.941C98.562 36.4783 98.5516 37.2327 98.5516 38.204V40.002V41.056V45.954L98.4276 47.132C98.345 47.6073 98.1796 47.8967 97.9316 48L97.4046 48.031L96.8776 48H95.4826H93.6536H91.7626H91.2976C90.8843 48.0413 90.4813 47.9897 90.0886 47.845C89.9026 47.7623 89.696 47.628 89.4686 47.442L86.3066 43.009C86.3066 42.9883 86.0793 42.606 85.6246 41.862C85.4593 41.614 85.3043 41.397 85.1596 41.211C85.1183 41.1283 85.0666 41.0663 85.0046 41.025C84.9633 40.963 84.9323 40.932 84.9116 40.932C84.7256 40.932 84.6326 41.0147 84.6326 41.18V41.862C84.612 42.0687 84.6016 42.4097 84.6016 42.885V44.094V45.272C84.5603 45.52 84.5396 45.83 84.5396 46.202V46.822V47.287L84.5706 47.442C84.5706 47.6073 84.488 47.7107 84.3226 47.752C84.2193 47.8347 84.054 47.8553 83.8266 47.814C83.124 47.8553 82.566 47.8967 82.1526 47.938C81.9046 47.9587 81.4706 47.9897 80.8506 48.031C80.2306 48.0723 79.652 48.093 79.1146 48.093ZM103.141 48.031C102.996 48.031 102.862 47.9793 102.738 47.876C102.614 47.752 102.521 47.597 102.459 47.411C102.376 47.039 102.314 46.6257 102.273 46.171C102.252 46.0263 102.242 45.83 102.242 45.582V45.179L102.273 41.335C102.273 40.033 102.304 38.7517 102.366 37.491V27.695C102.366 27.4883 102.5 27.385 102.769 27.385C104.195 27.385 105.259 27.3747 105.962 27.354H109.062C109.124 27.354 109.176 27.3437 109.217 27.323C109.258 27.3023 109.31 27.292 109.372 27.292C109.641 27.2507 110.013 27.2403 110.488 27.261C110.839 27.261 111.211 27.292 111.604 27.354C111.728 27.4367 111.821 27.4573 111.883 27.416C111.924 27.416 112.007 27.3953 112.131 27.354C112.441 27.354 112.679 27.3747 112.844 27.416C113.03 27.4573 113.175 27.5503 113.278 27.695C113.381 27.881 113.464 28.1083 113.526 28.377C113.547 28.5837 113.557 29.0177 113.557 29.679V35.724V36.189C113.536 36.3543 113.526 36.7263 113.526 37.305C113.526 37.925 113.505 38.4107 113.464 38.762L113.433 40.157C113.412 40.467 113.402 40.8597 113.402 41.335L113.371 41.831V43.815C113.371 45.055 113.319 46.109 113.216 46.977C113.216 47.2663 113.144 47.5557 112.999 47.845C112.627 47.845 112.09 47.8657 111.387 47.907C111.056 47.907 110.839 47.9277 110.736 47.969H110.426H110.333C110.188 47.969 110.116 47.9483 110.116 47.907C109.951 47.8657 109.858 47.845 109.837 47.845L109.589 47.969H106.737C106.716 47.9897 106.551 48 106.241 48H105.063H103.916L103.141 48.031Z" fill="white"/>
<path d="M40.18 119.21C39.7133 119.21 39.34 119.163 39.06 119.07H37.66H36.4H35.91L32.76 118.3L32.48 117.74C32.4333 117.74 32.41 117.483 32.41 116.97C32.41 116.317 32.3867 115.78 32.34 115.36L32.27 112.14C32.2233 111.44 32.2 110.39 32.2 108.99L32.06 103.6C32.06 102.433 32.1067 100.823 32.2 98.77L32.27 96.39C32.3633 94.8967 32.41 92.4467 32.41 89.04V88.55V87.64C32.3167 87.5 32.27 87.2433 32.27 86.87L32.2 86.38C32.2 85.2133 32.27 84 32.41 82.74C32.5033 81.1533 32.55 79.7067 32.55 78.4L32.48 76.44C32.4333 75.9267 32.41 75.32 32.41 74.62C32.41 74.5733 32.3633 74.5033 32.27 74.41C32.2233 74.3167 32.2 74.2233 32.2 74.13C32.2 73.6633 32.3867 73.2667 32.76 72.94C33.1333 72.6133 33.6 72.38 34.16 72.24C34.9067 72.0067 35.8633 71.89 37.03 71.89H48.86H54.32C54.3667 71.89 54.4367 71.9367 54.53 72.03C54.6233 72.1233 54.7167 72.1933 54.81 72.24C55.1833 72.5667 55.65 73.1967 56.21 74.13C56.35 74.41 56.49 74.7367 56.63 75.11C56.8167 75.4367 57.05 75.9733 57.33 76.72C57.6567 77.4667 58.1 78.61 58.66 80.15L59.5 82.32C59.8733 83.02 60.2933 84.0233 60.76 85.33C60.9 85.7033 61.04 86.0767 61.18 86.45C61.3667 86.8233 61.53 87.1967 61.67 87.57C61.7633 87.8967 61.8567 88.1533 61.95 88.34C62.09 88.48 62.16 88.5733 62.16 88.62C62.4867 89.3667 62.8367 89.74 63.21 89.74C63.6767 89.74 64.05 89.3667 64.33 88.62C64.3767 88.5733 64.4233 88.48 64.47 88.34C64.5167 88.1533 64.6333 87.8733 64.82 87.5L65.87 85.19L68.67 79.24L69.86 76.72C70 76.3467 70.0933 76.0433 70.14 75.81C70.2333 75.53 70.3267 75.3433 70.42 75.25C70.6067 74.83 71.05 74.1067 71.75 73.08C71.9833 72.7067 72.1933 72.4267 72.38 72.24C72.52 72.1933 72.6133 72.1233 72.66 72.03C72.7067 71.9367 72.7767 71.89 72.87 71.89H78.33H90.16H91.21H91.91H92.82H94.36C94.4533 71.89 94.57 72.24 94.71 72.94L94.92 79.8C95.0133 81.76 95.06 84.84 95.06 89.04V93.1C95.06 94.6867 94.99 96.46 94.85 98.42C94.71 100.38 94.6167 101.64 94.57 102.2L94.43 103.6V106.05C94.4767 106.703 94.5 107.683 94.5 108.99C94.5 110.39 94.5233 111.44 94.57 112.14C94.57 113.493 94.6167 114.427 94.71 114.94V116.97V117.74L94.5 118.3L91.35 119.07H90.86H89.6H88.2C87.8733 119.163 87.4767 119.21 87.01 119.21C86.17 119.21 85.0033 119.163 83.51 119.07L81.76 119C81.4333 118.953 81.06 118.907 80.64 118.86C80.22 118.813 79.7067 118.79 79.1 118.79L76.37 118.58C76.2767 118.58 76.2067 118.603 76.16 118.65H75.6C75.3667 118.65 75.2267 118.393 75.18 117.88C74.9 116.947 74.76 115.36 74.76 113.12C74.76 111.627 74.7367 110.46 74.69 109.62L74.62 105.84C74.5733 105 74.55 103.787 74.55 102.2C74.55 101.827 74.3867 101.64 74.06 101.64C73.8733 101.64 73.6867 101.873 73.5 102.34L72.73 104.23L72.1 105.98C72.0067 106.26 71.9133 106.54 71.82 106.82C71.7267 107.1 71.61 107.357 71.47 107.59L71.12 108.43C70.7 109.363 70.1633 110.413 69.51 111.58C68.81 112.84 67.9467 113.843 66.92 114.59C66.36 114.917 65.87 115.08 65.45 115.08H64.4C63.84 115.08 63.3733 115.033 63 114.94H61.46H60.06C58.1933 111.953 56.4433 108.687 54.81 105.14L53.76 102.55C53.48 101.943 53.2933 101.64 53.2 101.64C52.8733 101.64 52.71 101.827 52.71 102.2V105.49C52.71 108.757 52.6633 111.16 52.57 112.7C52.4767 115.127 52.3133 116.807 52.08 117.74C52.0333 118.347 51.8933 118.65 51.66 118.65H51.17L50.82 118.58C49.2333 118.673 47.9733 118.767 47.04 118.86C46.48 118.907 45.5 118.977 44.1 119.07C42.7 119.163 41.3933 119.21 40.18 119.21ZM104.135 119.07C103.529 119.07 103.109 118.603 102.875 117.67C102.829 117.53 102.805 117.297 102.805 116.97C102.805 116.503 102.899 115.803 103.085 114.87C103.179 114.263 103.249 113.797 103.295 113.47C103.389 113.097 103.459 112.817 103.505 112.63C104.905 106.05 106.282 100.263 107.635 95.27L112.535 73.15C112.535 73.0567 112.605 72.9167 112.745 72.73C112.885 72.5433 113.049 72.4267 113.235 72.38H113.585C113.585 72.4267 113.655 72.45 113.795 72.45C114.355 72.45 114.985 72.38 115.685 72.24C116.385 72.1 117.015 72.03 117.575 72.03C118.602 72.03 119.559 72.1 120.445 72.24C120.865 72.24 121.332 72.2633 121.845 72.31C122.359 72.3567 122.895 72.38 123.455 72.38C123.642 72.38 123.852 72.3333 124.085 72.24H125.345H126.955L128.635 72.17C128.962 72.1233 129.359 72.1 129.825 72.1C130.199 72.1 130.385 72.0767 130.385 72.03H131.505H133.885H136.825C139.439 72.03 141.165 72.0767 142.005 72.17C142.145 72.17 142.332 72.1933 142.565 72.24C142.845 72.24 143.009 72.2867 143.055 72.38C143.382 72.38 143.709 72.3567 144.035 72.31C144.362 72.2633 144.665 72.24 144.945 72.24C145.599 72.1 146.229 72.03 146.835 72.03C147.115 72.03 147.395 72.1 147.675 72.24C147.955 72.38 148.259 72.45 148.585 72.45L148.935 72.38H149.145C149.285 72.4733 149.425 72.6133 149.565 72.8C149.752 72.94 149.845 73.0567 149.845 73.15L154.745 95.27C156.239 100.73 157.592 106.517 158.805 112.63C158.805 112.91 158.899 113.213 159.085 113.54C159.132 113.867 159.202 114.31 159.295 114.87C159.389 115.43 159.435 115.897 159.435 116.27C159.482 116.457 159.505 116.713 159.505 117.04C159.505 117.693 159.365 118.23 159.085 118.65C158.899 118.93 158.619 119.07 158.245 119.07H157.335C156.635 119.07 156.099 119.047 155.725 119H153.905H152.155H150.755C150.382 119 150.195 118.977 150.195 118.93H145.785V118.79C145.599 118.697 145.365 118.65 145.085 118.65C145.085 118.65 145.062 118.673 145.015 118.72C145.015 118.72 144.992 118.743 144.945 118.79C144.945 118.883 144.899 118.93 144.805 118.93H144.595H144.035C143.802 118.837 143.335 118.79 142.635 118.79C141.235 118.697 140.139 118.65 139.345 118.65C139.065 118.23 138.762 117.39 138.435 116.13C138.155 114.87 137.852 113.47 137.525 111.93C137.432 111.183 137.339 110.67 137.245 110.39C136.265 110.577 134.982 110.67 133.395 110.67H131.225H129.195L128.705 112.91C128.099 115.99 127.609 117.903 127.235 118.65C127.049 118.65 126.815 118.697 126.535 118.79C126.442 118.837 126.349 118.883 126.255 118.93C126.209 118.93 126.185 118.93 126.185 118.93H125.905C125.625 118.93 125.415 118.883 125.275 118.79C125.182 118.697 125.065 118.65 124.925 118.65L121.775 118.79H120.655H119.605C119.419 118.883 119.185 118.93 118.905 118.93H118.625H112.185H111.555C111.042 118.977 109.992 119 108.405 119H106.585C106.212 119.047 105.675 119.07 104.975 119.07H104.135ZM136.475 101.92C136.149 99.6333 135.985 98.49 135.985 98.49C135.845 97.8367 135.612 96.6 135.285 94.78C135.192 94.3133 134.959 93.0533 134.585 91C134.212 88.76 134.025 87.64 134.025 87.64C133.885 86.7067 133.745 85.89 133.605 85.19L133.535 84.28C133.395 84.0467 133.325 83.8367 133.325 83.65L133.255 83.23C133.209 83.3233 133.185 83.4633 133.185 83.65C133.185 83.8367 133.139 83.9533 133.045 84V84.28L132.905 85.19C132.859 85.5167 132.789 85.89 132.695 86.31C132.649 86.6833 132.579 87.1033 132.485 87.57L132.135 89.53C131.622 92.47 131.319 94.1733 131.225 94.64C131.179 95.1533 131.062 95.9233 130.875 96.95C130.782 97.2767 130.689 97.7667 130.595 98.42L130.035 101.64H133.605L134.095 101.5H134.235C134.795 101.5 135.215 101.547 135.495 101.64C135.682 101.64 135.845 101.687 135.985 101.78C136.172 101.827 136.335 101.873 136.475 101.92ZM204.933 121.38C204.747 121.38 204.583 121.357 204.443 121.31C203.743 120.89 203.16 120.423 202.693 119.91C202.553 119.677 202.46 119.56 202.413 119.56C202.367 119.467 202.297 119.42 202.203 119.42L202.063 119.35C201.877 119.163 201.783 119.07 201.783 119.07L195.833 110.25C195.553 109.643 195.157 108.99 194.643 108.29C194.317 107.963 194.037 107.613 193.803 107.24C193.617 106.96 193.43 106.82 193.243 106.82C193.103 106.82 192.987 106.89 192.893 107.03C192.847 107.17 192.8 107.357 192.753 107.59C192.613 108.85 192.543 110.553 192.543 112.7C192.543 114.753 192.427 116.41 192.193 117.67C192.053 118.277 191.843 118.58 191.563 118.58H191.143C191.05 118.533 190.957 118.51 190.863 118.51C190.817 118.463 190.793 118.44 190.793 118.44C189.16 118.58 186.71 118.743 183.443 118.93C180.27 119.117 177.843 119.21 176.163 119.21C175.697 119.21 175.323 119.163 175.043 119.07H173.503H172.243H171.613L169.093 118.23L168.883 117.67C168.883 117.623 168.86 117.53 168.813 117.39C168.813 117.25 168.813 117.063 168.813 116.83C168.813 116.55 168.767 116.037 168.673 115.29C168.44 112.443 168.347 111.323 168.393 111.93C168.3 110.717 168.137 108.617 167.903 105.63L167.693 103.04C167.693 102.2 167.67 101.453 167.623 100.8C167.577 100.147 167.53 99.5867 167.483 99.12L167.343 97.58C167.203 95.6667 167.133 93.87 167.133 92.19C167.133 92.1433 167.133 92.0733 167.133 91.98C167.18 91.8867 167.203 91.7 167.203 91.42C167.297 91.14 167.343 90.6967 167.343 90.09L167.413 88.83L167.483 87.99C167.483 87.01 167.437 85.5867 167.343 83.72C167.157 82.5533 167.063 81.06 167.063 79.24C167.063 76.6267 167.227 74.7133 167.553 73.5C167.973 71.82 168.673 70.98 169.653 70.98C174.927 70.98 180.293 71.05 185.753 71.19C186.967 71.19 188.787 71.2367 191.213 71.33L193.943 71.4C197.677 71.4933 200.267 71.54 201.713 71.54C207.733 71.82 212.283 73.3367 215.363 76.09C216.763 77.2567 217.79 78.6567 218.443 80.29C219.143 81.9233 219.493 83.6733 219.493 85.54C219.493 87.6867 219.097 89.67 218.303 91.49C217.65 92.9367 216.717 94.2667 215.503 95.48C214.337 96.6467 213.007 97.58 211.513 98.28C211.793 98.42 212.167 98.7233 212.633 99.19C212.82 99.4233 213.147 99.7267 213.613 100.1L214.593 100.8C214.733 101.033 214.897 101.267 215.083 101.5C215.27 101.687 215.457 101.897 215.643 102.13L218.933 106.19C220.427 108.103 221.383 109.503 221.803 110.39C222.13 110.997 222.293 111.463 222.293 111.79C222.293 112.257 222.107 112.677 221.733 113.05C221.36 113.423 220.8 113.89 220.053 114.45C219.493 114.87 218.84 115.267 218.093 115.64C217.393 116.013 216.857 116.363 216.483 116.69L213.893 118.09C212.96 118.603 211.957 119.047 210.883 119.42C210.837 119.42 210.767 119.443 210.673 119.49C210.627 119.537 210.533 119.583 210.393 119.63C210.113 119.77 209.343 120.027 208.083 120.4C207.85 120.54 207.453 120.657 206.893 120.75C206.753 120.843 206.59 120.913 206.403 120.96C206.217 121.007 206.077 121.03 205.983 121.03H205.633C205.587 121.263 205.493 121.38 205.353 121.38H205.143H204.933ZM193.453 96.67C194.9 96.67 196.043 95.9467 196.883 94.5C197.677 93.1933 198.12 91.7 198.213 90.02C198.307 89.04 198.353 87.8733 198.353 86.52V85.75C198.353 84.6767 198.167 83.5567 197.793 82.39C197.42 80.8967 196.65 79.8233 195.483 79.17C194.97 78.75 194.293 78.54 193.453 78.54C193.22 78.54 193.033 78.82 192.893 79.38C192.473 80.4067 192.24 82.04 192.193 84.28C192.007 85.2133 191.913 86.31 191.913 87.57L191.843 89.67C191.75 92.3767 191.703 94.6167 191.703 96.39C191.703 96.4367 191.727 96.4833 191.773 96.53C191.82 96.5767 191.867 96.6 191.913 96.6L192.403 96.67H193.453ZM264.576 119.56C264.296 119.233 264.156 119.047 264.156 119L256.806 110.53C256.666 110.39 256.433 110.11 256.106 109.69C255.78 109.27 255.476 108.92 255.196 108.64L254.146 107.59C253.82 107.357 253.61 107.24 253.516 107.24C253.33 107.24 253.19 107.31 253.096 107.45C253.003 107.543 252.956 107.66 252.956 107.8V108.78V110.32C252.956 111.067 252.91 111.65 252.816 112.07V113.89C252.77 114.31 252.746 114.823 252.746 115.43V116.34V117.39V117.67C252.746 118.137 252.583 118.393 252.256 118.44C252.023 118.627 251.673 118.673 251.206 118.58C248.78 118.673 247.03 118.72 245.956 118.72L236.996 118.65H235.806H234.406C233.8 118.65 233.38 118.627 233.146 118.58H232.656L229.506 118.3L229.296 117.74C229.25 117.74 229.226 117.483 229.226 116.97C229.226 116.177 229.203 115.5 229.156 114.94V112.14C229.063 111.44 229.016 110.39 229.016 108.99L228.876 103.6C228.83 102.433 228.713 100.683 228.526 98.35L228.456 96.6C228.363 95.0133 228.316 93.8467 228.316 93.1V92.4C228.41 92.12 228.456 91.7 228.456 91.14C228.503 90.5333 228.526 89.8333 228.526 89.04L228.456 87.64C228.456 87.3133 228.433 87.0567 228.386 86.87C228.34 86.6367 228.316 86.4733 228.316 86.38C228.316 86.2867 228.34 86.0067 228.386 85.54C228.433 85.0733 228.456 84.6067 228.456 84.14C228.503 83.58 228.526 82.88 228.526 82.04V80.99V79.59C228.48 78.7967 228.456 77.63 228.456 76.09C228.363 75.7633 228.316 75.2967 228.316 74.69V73.99C228.176 72.9167 228.736 72.2867 229.996 72.1C230.37 71.96 230.906 71.89 231.606 71.89H233.146H240.916H246.656H250.366H252.606C253.26 71.89 253.656 72.2867 253.796 73.08C253.843 73.22 253.866 73.5233 253.866 73.99V75.04C253.866 76.2067 253.82 77.9567 253.726 80.29L253.656 82.18C253.563 83.3933 253.516 84.2333 253.516 84.7C254.076 84.7 254.59 84.56 255.056 84.28C255.383 83.9533 255.546 83.79 255.546 83.79C255.64 83.7433 255.733 83.6733 255.826 83.58C255.966 83.44 256.083 83.3233 256.176 83.23C256.363 83.1367 256.806 82.74 257.506 82.04C258.673 80.8733 260.586 79.0767 263.246 76.65C265.813 74.2233 267.82 72.45 269.266 71.33C270.153 70.7233 270.713 70.3967 270.946 70.35C271.04 70.35 271.203 70.4667 271.436 70.7C271.67 70.9333 271.833 71.0967 271.926 71.19C271.926 71.19 272.136 71.4 272.556 71.82C272.65 72.0533 272.766 72.1933 272.906 72.24L273.326 72.73C273.746 73.0567 274.026 73.3367 274.166 73.57L275.006 74.34C275.146 74.48 275.263 74.62 275.356 74.76C275.45 74.8533 275.52 74.9233 275.566 74.97C275.846 75.4367 276.593 76.44 277.806 77.98C278.74 79.0533 279.44 80.1033 279.906 81.13V81.27C279.906 81.9233 279.253 82.95 277.946 84.35L276.406 85.89C275.846 86.4033 275.45 86.8 275.216 87.08C275.17 87.08 275.1 87.1267 275.006 87.22C274.913 87.3133 274.796 87.43 274.656 87.57L271.856 89.74C271.856 89.74 271.39 90.2067 270.456 91.14L269.196 92.12C269.103 92.1667 268.916 92.3067 268.636 92.54C268.403 92.7267 268.193 92.8433 268.006 92.89C267.866 92.9833 267.703 93.1 267.516 93.24C267.33 93.3333 267.213 93.4267 267.166 93.52C267.073 93.5667 267.026 93.7767 267.026 94.15C267.026 94.8967 267.4 95.5967 268.146 96.25C268.473 96.6233 268.8 96.9033 269.126 97.09L270.106 97.93C271.086 98.91 271.576 99.4 271.576 99.4C272.51 100.193 274.19 101.71 276.616 103.95C278.483 105.63 279.953 107.147 281.026 108.5C281.493 109.2 281.726 109.713 281.726 110.04C281.726 110.32 281.68 110.553 281.586 110.74C281.54 110.927 281.4 111.137 281.166 111.37C280.233 112.163 279.37 112.747 278.576 113.12C277.783 113.54 277.013 114.077 276.266 114.73C275.52 115.337 274.796 115.943 274.096 116.55C273.49 117.11 272.79 117.623 271.996 118.09L270.596 118.79C270.596 118.79 270.386 118.93 269.966 119.21C269.546 119.49 269.243 119.723 269.056 119.91C268.356 120.33 267.633 120.54 266.886 120.54C266.466 120.54 266.023 120.447 265.556 120.26L264.576 119.56ZM293.943 119C293.709 119 293.359 118.977 292.893 118.93C292.426 118.837 291.866 118.767 291.213 118.72L289.743 118.37C289.509 118.323 289.323 118.277 289.183 118.23C289.089 118.137 289.066 118.067 289.113 118.02C289.113 116.807 289.043 115.197 288.903 113.19C288.903 112.49 288.879 111.883 288.833 111.37C288.786 110.81 288.739 110.343 288.693 109.97L288.553 106.96C288.553 106.167 288.506 105.163 288.413 103.95L288.343 101.78C288.343 100.007 288.319 98.63 288.273 97.65C288.226 96.67 288.203 94.6167 288.203 91.49C288.203 88.55 288.226 85.5167 288.273 82.39C288.319 79.2633 288.459 76.3 288.693 73.5C288.693 72.9867 289.253 72.5667 290.373 72.24C291.073 72.1467 292.239 72.1 293.873 72.1C297.653 72.1 300.429 72.03 302.203 71.89C307.709 71.7967 311.863 71.75 314.663 71.75H317.743C321.569 71.8433 324.509 71.9833 326.563 72.17C327.309 72.17 327.846 73.0567 328.173 74.83C328.313 75.1567 328.476 75.9967 328.663 77.35C328.803 78.05 328.989 78.9133 329.223 79.94C329.269 80.22 329.269 80.5 329.223 80.78C329.223 81.0133 329.223 81.1533 329.223 81.2C329.176 81.6667 328.919 81.9 328.453 81.9C328.266 81.8533 327.986 81.83 327.613 81.83C325.653 81.83 323.249 81.9933 320.403 82.32L316.693 82.6C315.153 82.7867 313.939 82.9033 313.053 82.95C312.913 82.95 312.726 83.23 312.493 83.79C312.306 84.3967 312.096 85.7967 311.863 87.99L311.723 89.74C311.723 90.3467 311.793 90.7433 311.933 90.93C312.073 91.07 312.376 91.14 312.843 91.14H319.073C320.893 91.14 322.969 91.2567 325.303 91.49H326.143C326.749 91.63 327.123 91.8633 327.263 92.19C327.449 92.47 327.566 92.7733 327.613 93.1L327.893 99.33V99.54C327.893 100.333 327.053 100.8 325.373 100.94C324.393 101.173 322.526 101.29 319.773 101.29C317.393 101.29 315.853 101.267 315.153 101.22C313.799 101.22 312.983 101.243 312.703 101.29C312.189 101.43 311.863 101.71 311.723 102.13C311.583 102.503 311.513 103.157 311.513 104.09C311.513 104.697 311.466 105.56 311.373 106.68C311.326 107.24 311.303 108.127 311.303 109.34C314.336 109.34 316.576 109.293 318.023 109.2C319.609 109.06 321.849 108.99 324.743 108.99C324.929 108.99 325.116 109.153 325.303 109.48C325.536 109.947 325.909 110.997 326.423 112.63C326.703 113.563 326.983 114.73 327.263 116.13C327.356 116.457 327.403 116.807 327.403 117.18C327.403 118.16 326.936 118.65 326.003 118.65C324.789 118.65 323.156 118.697 321.103 118.79C320.029 118.883 318.349 118.93 316.063 118.93C311.163 118.93 307.476 118.953 305.003 119H293.943ZM348.148 119.07C347.494 119.07 347.004 118.627 346.678 117.74C345.978 116.2 345.628 113.4 345.628 109.34C345.628 105.42 345.698 100.917 345.838 95.83C345.884 94.1967 345.908 91.6767 345.908 88.27L345.698 87.99H337.928C337.321 87.99 336.831 87.6633 336.458 87.01C336.131 86.31 335.874 85.3533 335.688 84.14C335.454 82.74 335.338 80.7333 335.338 78.12V77.14C335.338 76.6733 335.361 76.3 335.408 76.02V74.97V74.34C335.408 74.06 335.548 73.8267 335.828 73.64C336.108 73.4067 336.434 73.2433 336.808 73.15C337.274 73.01 337.974 72.94 338.908 72.94H344.228C345.394 72.94 346.281 72.9633 346.888 73.01L349.478 73.08H374.678C376.498 73.08 377.688 73.1033 378.248 73.15C378.481 73.1967 378.808 73.2433 379.228 73.29C379.648 73.3367 379.951 73.43 380.138 73.57C380.464 73.71 380.651 73.8967 380.698 74.13C380.791 74.3167 380.838 74.62 380.838 75.04V86.59C380.838 87.1033 380.628 87.4533 380.208 87.64C379.928 87.7333 379.554 87.78 379.088 87.78H376.848H374.538C373.464 87.78 372.648 87.7333 372.088 87.64H369.988C369.568 87.64 369.334 87.7333 369.288 87.92C369.288 87.9667 369.264 88.0367 369.218 88.13C369.171 88.1767 369.148 88.2467 369.148 88.34V89.39V91.77C369.148 92.47 369.124 93.0067 369.078 93.38C369.078 94.7333 368.984 97.6967 368.798 102.27L368.658 104.37C368.564 106.33 368.471 107.753 368.378 108.64V115.29C368.378 116.877 368.051 117.88 367.398 118.3C366.791 118.533 366.371 118.673 366.138 118.72L364.388 118.79C362.568 118.79 361.284 118.837 360.538 118.93L353.188 119C352.254 119.047 350.574 119.07 348.148 119.07Z" fill="white"/>
</svg>
