<svg width="336" height="115" viewBox="0 0 336 115" fill="none" xmlns="http://www.w3.org/2000/svg">
<path d="M0 20C0 8.95431 8.95431 0 20 0H316C327.046 0 336 8.95431 336 20V95C336 106.046 327.046 115 316 115H20C8.95431 115 0 106.046 0 95V20Z" fill="#FFB851"/>
<path d="M69.8359 76H62.8047V61.375H49.0938V76H42.0625V41.875H49.0938V55.7031H62.8047V41.875H69.8359V76ZM90.25 76C89.9375 75.3906 89.7109 74.6328 89.5703 73.7266C87.9297 75.5547 85.7969 76.4688 83.1719 76.4688C80.6875 76.4688 78.625 75.75 76.9844 74.3125C75.3594 72.875 74.5469 71.0625 74.5469 68.875C74.5469 66.1875 75.5391 64.125 77.5234 62.6875C79.5234 61.25 82.4062 60.5234 86.1719 60.5078H89.2891V59.0547C89.2891 57.8828 88.9844 56.9453 88.375 56.2422C87.7812 55.5391 86.8359 55.1875 85.5391 55.1875C84.3984 55.1875 83.5 55.4609 82.8438 56.0078C82.2031 56.5547 81.8828 57.3047 81.8828 58.2578H75.1094C75.1094 56.7891 75.5625 55.4297 76.4688 54.1797C77.375 52.9297 78.6562 51.9531 80.3125 51.25C81.9688 50.5312 83.8281 50.1719 85.8906 50.1719C89.0156 50.1719 91.4922 50.9609 93.3203 52.5391C95.1641 54.1016 96.0859 56.3047 96.0859 59.1484V70.1406C96.1016 72.5469 96.4375 74.3672 97.0938 75.6016V76H90.25ZM84.6484 71.2891C85.6484 71.2891 86.5703 71.0703 87.4141 70.6328C88.2578 70.1797 88.8828 69.5781 89.2891 68.8281V64.4688H86.7578C83.3672 64.4688 81.5625 65.6406 81.3438 67.9844L81.3203 68.3828C81.3203 69.2266 81.6172 69.9219 82.2109 70.4688C82.8047 71.0156 83.6172 71.2891 84.6484 71.2891ZM124.117 63.5547C124.117 67.4609 123.227 70.5938 121.445 72.9531C119.68 75.2969 117.289 76.4688 114.273 76.4688C111.711 76.4688 109.641 75.5781 108.062 73.7969V85.75H101.289V50.6406H107.57L107.805 53.125C109.445 51.1562 111.586 50.1719 114.227 50.1719C117.352 50.1719 119.781 51.3281 121.516 53.6406C123.25 55.9531 124.117 59.1406 124.117 63.2031V63.5547ZM117.344 63.0625C117.344 60.7031 116.922 58.8828 116.078 57.6016C115.25 56.3203 114.039 55.6797 112.445 55.6797C110.32 55.6797 108.859 56.4922 108.062 58.1172V68.5C108.891 70.1719 110.367 71.0078 112.492 71.0078C115.727 71.0078 117.344 68.3594 117.344 63.0625ZM151.164 63.5547C151.164 67.4609 150.273 70.5938 148.492 72.9531C146.727 75.2969 144.336 76.4688 141.32 76.4688C138.758 76.4688 136.688 75.5781 135.109 73.7969V85.75H128.336V50.6406H134.617L134.852 53.125C136.492 51.1562 138.633 50.1719 141.273 50.1719C144.398 50.1719 146.828 51.3281 148.562 53.6406C150.297 55.9531 151.164 59.1406 151.164 63.2031V63.5547ZM144.391 63.0625C144.391 60.7031 143.969 58.8828 143.125 57.6016C142.297 56.3203 141.086 55.6797 139.492 55.6797C137.367 55.6797 135.906 56.4922 135.109 58.1172V68.5C135.938 70.1719 137.414 71.0078 139.539 71.0078C142.773 71.0078 144.391 68.3594 144.391 63.0625ZM164.57 66.4141L169.258 50.6406H176.523L166.328 79.9375L165.766 81.2734C164.25 84.5859 161.75 86.2422 158.266 86.2422C157.281 86.2422 156.281 86.0938 155.266 85.7969V80.6641L156.297 80.6875C157.578 80.6875 158.531 80.4922 159.156 80.1016C159.797 79.7109 160.297 79.0625 160.656 78.1562L161.453 76.0703L152.57 50.6406H159.859L164.57 66.4141Z" fill="black"/>
<path d="M207.414 76H200.383V61.375H186.672V76H179.641V41.875H186.672V55.7031H200.383V41.875H207.414V76ZM227.828 76C227.516 75.3906 227.289 74.6328 227.148 73.7266C225.508 75.5547 223.375 76.4688 220.75 76.4688C218.266 76.4688 216.203 75.75 214.562 74.3125C212.938 72.875 212.125 71.0625 212.125 68.875C212.125 66.1875 213.117 64.125 215.102 62.6875C217.102 61.25 219.984 60.5234 223.75 60.5078H226.867V59.0547C226.867 57.8828 226.562 56.9453 225.953 56.2422C225.359 55.5391 224.414 55.1875 223.117 55.1875C221.977 55.1875 221.078 55.4609 220.422 56.0078C219.781 56.5547 219.461 57.3047 219.461 58.2578H212.688C212.688 56.7891 213.141 55.4297 214.047 54.1797C214.953 52.9297 216.234 51.9531 217.891 51.25C219.547 50.5312 221.406 50.1719 223.469 50.1719C226.594 50.1719 229.07 50.9609 230.898 52.5391C232.742 54.1016 233.664 56.3047 233.664 59.1484V70.1406C233.68 72.5469 234.016 74.3672 234.672 75.6016V76H227.828ZM222.227 71.2891C223.227 71.2891 224.148 71.0703 224.992 70.6328C225.836 70.1797 226.461 69.5781 226.867 68.8281V64.4688H224.336C220.945 64.4688 219.141 65.6406 218.922 67.9844L218.898 68.3828C218.898 69.2266 219.195 69.9219 219.789 70.4688C220.383 71.0156 221.195 71.2891 222.227 71.2891ZM261.719 63.5547C261.719 67.6172 260.852 70.7891 259.117 73.0703C257.383 75.3359 254.961 76.4688 251.852 76.4688C249.102 76.4688 246.906 75.4141 245.266 73.3047L244.961 76H238.867V40H245.641V52.9141C247.203 51.0859 249.258 50.1719 251.805 50.1719C254.898 50.1719 257.32 51.3125 259.07 53.5938C260.836 55.8594 261.719 59.0547 261.719 63.1797V63.5547ZM254.945 63.0625C254.945 60.5 254.539 58.6328 253.727 57.4609C252.914 56.2734 251.703 55.6797 250.094 55.6797C247.938 55.6797 246.453 56.5625 245.641 58.3281V68.3359C246.469 70.1172 247.969 71.0078 250.141 71.0078C252.328 71.0078 253.766 69.9297 254.453 67.7734C254.781 66.7422 254.945 65.1719 254.945 63.0625ZM273.062 76H266.266V50.6406H273.062V76ZM265.867 44.0781C265.867 43.0625 266.203 42.2266 266.875 41.5703C267.562 40.9141 268.492 40.5859 269.664 40.5859C270.82 40.5859 271.742 40.9141 272.43 41.5703C273.117 42.2266 273.461 43.0625 273.461 44.0781C273.461 45.1094 273.109 45.9531 272.406 46.6094C271.719 47.2656 270.805 47.5938 269.664 47.5938C268.523 47.5938 267.602 47.2656 266.898 46.6094C266.211 45.9531 265.867 45.1094 265.867 44.0781ZM286.773 44.4062V50.6406H291.109V55.6094H286.773V68.2656C286.773 69.2031 286.953 69.875 287.312 70.2812C287.672 70.6875 288.359 70.8906 289.375 70.8906C290.125 70.8906 290.789 70.8359 291.367 70.7266V75.8594C290.039 76.2656 288.672 76.4688 287.266 76.4688C282.516 76.4688 280.094 74.0703 280 69.2734V55.6094H276.297V50.6406H280V44.4062H286.773ZM308.617 68.9922C308.617 68.1641 308.203 67.5156 307.375 67.0469C306.562 66.5625 305.25 66.1328 303.438 65.7578C297.406 64.4922 294.391 61.9297 294.391 58.0703C294.391 55.8203 295.32 53.9453 297.18 52.4453C299.055 50.9297 301.5 50.1719 304.516 50.1719C307.734 50.1719 310.305 50.9297 312.227 52.4453C314.164 53.9609 315.133 55.9297 315.133 58.3516H308.359C308.359 57.3828 308.047 56.5859 307.422 55.9609C306.797 55.3203 305.82 55 304.492 55C303.352 55 302.469 55.2578 301.844 55.7734C301.219 56.2891 300.906 56.9453 300.906 57.7422C300.906 58.4922 301.258 59.1016 301.961 59.5703C302.68 60.0234 303.883 60.4219 305.57 60.7656C307.258 61.0938 308.68 61.4688 309.836 61.8906C313.414 63.2031 315.203 65.4766 315.203 68.7109C315.203 71.0234 314.211 72.8984 312.227 74.3359C310.242 75.7578 307.68 76.4688 304.539 76.4688C302.414 76.4688 300.523 76.0938 298.867 75.3438C297.227 74.5781 295.938 73.5391 295 72.2266C294.062 70.8984 293.594 69.4688 293.594 67.9375H300.016C300.078 69.1406 300.523 70.0625 301.352 70.7031C302.18 71.3438 303.289 71.6641 304.68 71.6641C305.977 71.6641 306.953 71.4219 307.609 70.9375C308.281 70.4375 308.617 69.7891 308.617 68.9922Z" fill="white"/>
</svg>
